<svg width="18" height="18" viewBox="0 0 18 18" fill="none" xmlns="http://www.w3.org/2000/svg">
<path d="M7.7002 0C12 0.000106086 15.4999 3.49996 15.5 7.7998C15.5 9.59972 14.9003 11.2 13.9004 12.5L18 16.5996L16.5996 18L12.4004 13.7998C11.1004 14.7998 9.50012 15.4003 7.7002 15.4004C3.50026 15.4004 0.000106085 12.0001 0 7.7002C0 3.5002 3.5002 0 7.7002 0ZM7.7002 1.90039C6.10027 1.90045 4.60055 2.60063 3.60059 3.60059C2.50063 4.70054 1.90044 6.10028 1.90039 7.7002C1.90039 9.3002 2.60059 10.8008 3.60059 11.8008C4.7005 12.9005 6.10042 13.5 7.7002 13.5C9.3002 13.5 10.8008 12.8008 11.8008 11.8008C12.8008 10.8008 13.5 9.3002 13.5 7.7002C13.4999 6.10042 12.8006 4.60055 11.8008 3.60059C10.7008 2.50059 9.3002 1.90039 7.7002 1.90039Z" fill="#4C5578"/>
</svg>
